<?xml version="1.0" encoding="iso-8859-1"?>
<!-- Generator: Adobe Illustrator 19.0.0, SVG Export Plug-In . SVG Version: 6.00 Build 0)  -->
<svg version="1.1" id="Capa_1" xmlns="http://www.w3.org/2000/svg" xmlns:xlink="http://www.w3.org/1999/xlink" x="0px" y="0px"
	 viewBox="0 0 512 512" style="enable-background:new 0 0 512 512;" xml:space="preserve">
<g>
	<g>
		<path d="M256,0C114.615,0,0,114.615,0,256s114.615,256,256,256s256-114.615,256-256C511.835,114.683,397.317,0.165,256,0z
			 M256,490.667C126.397,490.667,21.333,385.603,21.333,256S126.397,21.333,256,21.333S490.667,126.397,490.667,256
			C490.52,385.542,385.542,490.52,256,490.667z"/>
	</g>
</g>
<g>
	<g>
		<path d="M352,202.667h-21.333v-53.333c0-41.237-33.429-74.667-74.667-74.667s-74.667,33.429-74.667,74.667v53.333H160
			c-5.891,0-10.667,4.776-10.667,10.667v192c0,5.891,4.776,10.667,10.667,10.667h192c5.891,0,10.667-4.776,10.667-10.667v-192
			C362.667,207.442,357.891,202.667,352,202.667z M202.667,149.333C202.667,119.878,226.545,96,256,96s53.333,23.878,53.333,53.333
			v53.333H202.667V149.333z M341.333,394.667H170.667V224h170.667V394.667z"/>
	</g>
</g>
<g>
	<g>
		<path d="M286.173,277.319C281.666,264.524,269.565,255.974,256,256c-17.632-0.033-31.952,14.233-31.986,31.865
			c-0.026,13.565,8.524,25.666,21.319,30.173v44.629h21.333v-44.629C283.297,312.18,292.03,293.95,286.173,277.319z M256,298.667
			c-5.891,0-10.667-4.776-10.667-10.667s4.776-10.667,10.667-10.667s10.667,4.776,10.667,10.667S261.891,298.667,256,298.667z"/>
	</g>
</g>
<g>
</g>
<g>
</g>
<g>
</g>
<g>
</g>
<g>
</g>
<g>
</g>
<g>
</g>
<g>
</g>
<g>
</g>
<g>
</g>
<g>
</g>
<g>
</g>
<g>
</g>
<g>
</g>
<g>
</g>
</svg>
