<?xml version="1.0" encoding="iso-8859-1"?>
<!-- Generator: Adobe Illustrator 16.0.0, SVG Export Plug-In . SVG Version: 6.00 Build 0)  -->
<!DOCTYPE svg PUBLIC "-//W3C//DTD SVG 1.1//EN" "http://www.w3.org/Graphics/SVG/1.1/DTD/svg11.dtd">
<svg version="1.1" id="Capa_1" xmlns="http://www.w3.org/2000/svg" xmlns:xlink="http://www.w3.org/1999/xlink" x="0px" y="0px"
	 width="603.121px" height="603.121px" viewBox="0 0 603.121 603.121" style="enable-background:new 0 0 603.121 603.121;"
	 xml:space="preserve">
<g>
	<g>
		<path d="M470.58,355.336c15.419-18.979,27.438-40.222,35.726-63.135c8.576-23.715,12.926-48.623,12.926-74.029
			c0-29.318-5.743-57.787-17.069-84.613c-10.932-25.89-26.574-49.142-46.493-69.111c-19.917-19.966-43.127-35.666-68.986-46.661
			C359.892,6.394,331.449,0.579,302.145,0.501L301.563,0.5c-29.323,0-57.812,5.772-84.677,17.156
			C190.98,28.633,167.713,44.33,147.728,64.31c-19.987,19.982-35.69,43.25-46.671,69.156
			c-11.391,26.872-17.167,55.371-17.167,84.708c0,25.404,4.349,50.309,12.924,74.022c8.285,22.911,20.303,44.151,35.719,63.131
			c15.269,18.798,33.417,34.82,53.938,47.623c13.465,8.4,27.702,15.255,42.544,20.497c-22.466,8.048-38.584,29.556-38.584,54.756
			v20.074c0,26.887,18.344,49.569,43.175,56.188c4.747,27.318,28.627,48.157,57.283,48.157h21.345
			c28.436,0,52.168-20.52,57.17-47.527c26.141-5.683,45.78-29,45.78-56.818v-20.073c0-25.672-16.725-47.512-39.851-55.194
			c14.395-5.181,28.212-11.885,41.301-20.049C437.158,390.157,455.308,374.134,470.58,355.336z M372.343,498.276
			c0,8.449-6.851,15.3-15.3,15.3h-14.21c-8.45,0-15.301,6.85-15.301,15.3v15.605c0,8.449-6.85,15.3-15.3,15.3h-21.345
			c-8.45,0-15.3-6.851-15.3-15.3v-15.605c0-8.45-6.85-15.3-15.3-15.3H248.57c-8.45,0-15.3-6.851-15.3-15.3v-20.074
			c0-8.45,6.85-15.3,15.3-15.3h11.718c8.45,0,15.3-6.851,15.3-15.3v-43.808c0-7.193-5.018-13.388-12.041-14.944
			C185.27,371.494,126.73,301.672,126.73,218.173c0-96.402,78.489-174.833,174.833-174.833c0.153,0,0.314,0,0.468,0
			c96.339,0.254,174.36,78.431,174.36,174.83c0,83.509-58.552,153.337-136.84,170.685c-7.015,1.554-12.02,7.754-12.02,14.939v43.808
			c0,8.45,6.851,15.301,15.301,15.301h14.21c8.449,0,15.3,6.85,15.3,15.3V498.276L372.343,498.276z"/>
		<path d="M312.233,603.121h-21.345c-28.481,0-52.704-20.275-57.72-48.257c-25.474-6.938-43.238-30.161-43.238-56.588v-20.074
			c0-24.235,15.062-46.062,37.623-54.746c-14.391-5.188-28.296-11.94-41.348-20.083c-20.569-12.832-38.758-28.892-54.062-47.731
			c-15.452-19.024-27.498-40.313-35.801-63.276c-8.595-23.77-12.954-48.731-12.954-74.192c0-29.403,5.789-57.969,17.207-84.903
			c11.007-25.965,26.745-49.286,46.778-69.314c20.031-20.026,43.352-35.758,69.317-46.76C243.619,5.786,272.174,0,301.563,0
			l0.582,0.001c29.373,0.078,57.881,5.907,84.732,17.325c25.918,11.02,49.182,26.755,69.145,46.768
			c19.966,20.015,35.644,43.321,46.601,69.27c11.353,26.889,17.108,55.422,17.108,84.808c0,25.463-4.358,50.427-12.955,74.199
			c-8.308,22.968-20.354,44.258-35.809,63.281c-15.309,18.843-33.501,34.902-54.069,47.731
			c-12.667,7.901-26.142,14.496-40.069,19.613c23.3,8.36,38.854,30.368,38.854,55.206v20.073c0,27.279-19.262,51.296-45.85,57.235
			C364.561,583.119,340.39,603.121,312.233,603.121z M301.562,1c-29.253,0-57.677,5.759-84.481,17.117
			c-25.846,10.952-49.061,26.612-69,46.546c-19.942,19.937-35.608,43.151-46.564,68.998c-11.365,26.81-17.127,55.244-17.127,84.512
			c0,25.345,4.338,50.192,12.894,73.852c8.266,22.857,20.256,44.049,35.637,62.985c15.233,18.755,33.339,34.74,53.814,47.515
			c13.381,8.348,27.662,15.228,42.446,20.449l1.325,0.469l-1.323,0.474c-22.88,8.196-38.252,30.012-38.252,54.285v20.074
			c0,26.081,17.602,48.987,42.804,55.704l0.309,0.083l0.055,0.314c4.807,27.664,28.69,47.743,56.79,47.743h21.345
			c27.785,0,51.622-19.816,56.679-47.118l0.061-0.327l0.324-0.07c26.299-5.717,45.387-29.407,45.387-56.33v-20.073
			c0-24.879-15.877-46.869-39.508-54.72l-1.372-0.456l1.36-0.489c14.333-5.158,28.196-11.888,41.205-20.002
			c20.475-12.771,38.583-28.757,53.823-47.515c15.382-18.935,27.375-40.128,35.644-62.99c8.557-23.663,12.896-48.513,12.896-73.859
			c0-29.251-5.729-57.654-17.03-84.419c-10.906-25.83-26.513-49.029-46.387-68.953c-19.871-19.921-43.028-35.584-68.827-46.554
			C359.759,6.88,331.382,1.079,302.143,1.001L301.562,1z M312.232,560.281h-21.345c-8.712,0-15.8-7.088-15.8-15.8v-15.605
			c0-8.161-6.639-14.8-14.8-14.8H248.57c-8.712,0-15.8-7.088-15.8-15.8v-20.074c0-8.712,7.088-15.8,15.8-15.8h11.718
			c8.161,0,14.8-6.64,14.8-14.8v-43.808c0-6.991-4.791-12.936-11.649-14.456c-38.326-8.498-73.145-30.059-98.042-60.708
			c-25.256-31.094-39.166-70.322-39.167-110.458c0-46.751,18.266-90.761,51.434-123.92c33.162-33.154,77.163-51.412,123.9-51.412
			l0.47,0c46.733,0.123,90.649,18.416,123.66,51.507c33.016,33.098,51.198,77.072,51.198,123.823
			c0,40.141-13.912,79.373-39.174,110.468c-24.901,30.652-59.726,52.211-98.058,60.705c-6.847,1.517-11.628,7.459-11.628,14.451
			v43.808c0,8.161,6.64,14.801,14.801,14.801h14.21c8.712,0,15.8,7.088,15.8,15.8v20.073c0,8.712-7.088,15.8-15.8,15.8h-14.21
			c-8.161,0-14.801,6.639-14.801,14.8v15.605C328.032,553.193,320.944,560.281,312.232,560.281z M248.57,463.402
			c-8.161,0-14.8,6.639-14.8,14.8v20.074c0,8.16,6.639,14.8,14.8,14.8h11.717c8.712,0,15.8,7.088,15.8,15.8v15.605
			c0,8.16,6.639,14.8,14.8,14.8h21.345c8.161,0,14.8-6.64,14.8-14.8v-15.605c0-8.712,7.088-15.8,15.801-15.8h14.21
			c8.161,0,14.8-6.64,14.8-14.8v-20.073c0-8.161-6.639-14.8-14.8-14.8h-14.21c-8.713,0-15.801-7.088-15.801-15.801v-43.808
			c0-7.465,5.104-13.809,12.411-15.428c38.112-8.445,72.738-29.881,97.498-60.358c25.117-30.918,38.95-69.926,38.95-109.838
			c0-46.484-18.079-90.208-50.906-123.117c-32.822-32.903-76.488-51.091-122.955-51.213l-0.467,0
			c-46.47,0-90.22,18.154-123.193,51.119c-32.979,32.971-51.141,76.729-51.141,123.213c0,39.908,13.831,78.912,38.943,109.827
			c24.755,30.476,59.375,51.913,97.482,60.362c7.32,1.622,12.433,7.969,12.433,15.433v43.808c0,8.712-7.088,15.8-15.8,15.8H248.57z"
			/>
	</g>
	<g>
		<path d="M384.423,299.503c10.749-10.748,19.191-23.276,25.097-37.235c6.122-14.475,9.227-29.826,9.227-45.627
			c0-15.801-3.104-31.152-9.227-45.627c-5.905-13.959-14.348-26.487-25.097-37.235c-10.748-10.749-23.276-19.191-37.235-25.096
			c-14.475-6.123-29.826-9.227-45.627-9.227c-15.801,0-31.152,3.104-45.627,9.227c-13.96,5.904-26.487,14.348-37.235,25.096
			c-10.748,10.748-19.192,23.276-25.096,37.235c-6.123,14.475-9.227,29.826-9.227,45.626c0,15.801,3.104,31.152,9.227,45.627
			c5.904,13.959,14.348,26.487,25.096,37.235c10.748,10.749,23.276,19.192,37.235,25.096c14.475,6.123,29.826,9.227,45.627,9.227
			c15.801,0,31.152-3.104,45.627-9.227C361.146,318.695,373.675,310.251,384.423,299.503z M301.561,142.296
			c41.06,0,74.345,33.286,74.345,74.345s-33.286,74.345-74.345,74.345c-41.06,0-74.345-33.286-74.345-74.345
			S260.501,142.296,301.561,142.296z"/>
		<path d="M301.561,334.325c-15.87,0-31.287-3.117-45.822-9.266c-14.02-5.931-26.601-14.41-37.394-25.204
			c-10.794-10.793-19.273-23.375-25.203-37.394c-6.148-14.537-9.266-29.953-9.266-45.822s3.118-31.285,9.266-45.821
			c5.929-14.019,14.409-26.6,25.203-37.394c10.794-10.795,23.376-19.275,37.394-25.203c14.537-6.148,29.953-9.266,45.822-9.266
			c15.869,0,31.286,3.118,45.821,9.266c14.021,5.931,26.603,14.411,37.395,25.203c10.792,10.791,19.271,23.372,25.204,37.394
			c6.148,14.538,9.266,29.954,9.266,45.822s-3.117,31.285-9.266,45.822c-5.933,14.022-14.412,26.603-25.204,37.394
			c-10.795,10.794-23.377,19.274-37.395,25.203C332.848,331.208,317.431,334.325,301.561,334.325z M301.561,99.956
			c-15.734,0-31.02,3.091-45.432,9.187c-13.899,5.878-26.374,14.286-37.077,24.989c-10.703,10.703-19.11,23.177-24.989,37.077
			c-6.096,14.412-9.187,29.697-9.187,45.432c0,15.734,3.091,31.02,9.187,45.432c5.879,13.9,14.287,26.375,24.989,37.077
			c10.702,10.702,23.176,19.11,37.077,24.989c14.411,6.097,29.697,9.188,45.432,9.188s31.021-3.091,45.433-9.188
			c13.898-5.877,26.372-14.284,37.076-24.988c10.7-10.7,19.108-23.174,24.989-37.077c6.097-14.414,9.188-29.699,9.188-45.433
			c0-15.733-3.091-31.019-9.188-45.432c-5.881-13.903-14.289-26.377-24.989-37.077c-10.701-10.701-23.175-19.109-37.076-24.989
			C332.581,103.046,317.295,99.956,301.561,99.956z M301.561,291.487c-41.27,0-74.845-33.576-74.845-74.845
			c0-41.27,33.575-74.845,74.845-74.845s74.845,33.575,74.845,74.845C376.405,257.911,342.83,291.487,301.561,291.487z
			 M301.561,142.796c-40.718,0-73.845,33.127-73.845,73.845s33.126,73.845,73.845,73.845c40.718,0,73.845-33.127,73.845-73.845
			S342.278,142.796,301.561,142.796z"/>
	</g>
</g>
<g>
</g>
<g>
</g>
<g>
</g>
<g>
</g>
<g>
</g>
<g>
</g>
<g>
</g>
<g>
</g>
<g>
</g>
<g>
</g>
<g>
</g>
<g>
</g>
<g>
</g>
<g>
</g>
<g>
</g>
</svg>
