<svg id="Capa_1" enable-background="new 0 0 512 512" height="512" viewBox="0 0 512 512" width="512" xmlns="http://www.w3.org/2000/svg"><g><path d="m497 482h-467v-467c0-8.284-6.716-15-15-15s-15 6.716-15 15v482c0 8.284 6.716 15 15 15h482c8.284 0 15-6.716 15-15s-6.716-15-15-15z"/><path d="m75 330c-8.284 0-15 6.716-15 15v92c0 8.284 6.716 15 15 15h61c8.284 0 15-6.716 15-15v-92c0-8.284-6.716-15-15-15zm46 92h-31v-62h31z"/><path d="m196 270c-8.284 0-15 6.716-15 15v152c0 8.284 6.716 15 15 15h60c8.284 0 15-6.716 15-15v-152c0-8.284-6.716-15-15-15zm45 152h-30v-122h30z"/><path d="m316 210c-8.284 0-15 6.716-15 15v212c0 8.284 6.716 15 15 15h60c8.284 0 15-6.716 15-15v-212c0-8.284-6.716-15-15-15zm45 212h-30v-182h30z"/><path d="m497 150h-61c-8.284 0-15 6.716-15 15v272c0 8.284 6.716 15 15 15h61c8.284 0 15-6.716 15-15v-272c0-8.284-6.716-15-15-15zm-15 272h-31v-242h31z"/><path d="m429.292 118.417c7.419 3.71 16.424.691 20.124-6.708l30-60c2.325-4.649 2.077-10.172-.656-14.594-2.734-4.423-7.562-7.115-12.76-7.115h-75c-8.284 0-15 6.716-15 15s6.716 15 15 15h15.369l-338.467 181.785c-7.298 3.92-10.037 13.014-6.117 20.312 2.707 5.041 7.881 7.906 13.228 7.906 2.396 0 4.827-.576 7.085-1.788l349.336-187.623-8.85 17.7c-3.705 7.41-.702 16.419 6.708 20.125z"/></g></svg>