<svg id="Capa_1" enable-background="new 0 0 512 512" height="512" viewBox="0 0 512 512" width="512" xmlns="http://www.w3.org/2000/svg"><g><g><path d="m194.025 512c-106.985 0-194.025-87.04-194.025-194.025s87.04-194.025 194.025-194.025c36.237 0 71.116 9.891 101.636 28.716l62.617-62.617h-46.414v-90.049h200.136v200.088h-90.048v-46.366l-62.617 62.617c18.825 30.52 28.716 65.398 28.716 101.636 0 106.985-87.04 194.025-194.026 194.025zm0-358.051c-90.443 0-164.025 73.582-164.025 164.026s73.582 164.025 164.025 164.025 164.025-73.582 164.025-164.025c0-34.255-10.448-67.067-30.216-94.889l-7.341-10.332 131.459-131.459v88.793h30.048v-140.088h-140.136v30.048h88.841l-131.459 131.458-10.332-7.341c-27.821-19.768-60.633-30.216-94.889-30.216z"/></g><g><path d="m194.025 452c-73.901 0-134.025-60.124-134.025-134.025s60.124-134.025 134.025-134.025 134.025 60.124 134.025 134.025-60.123 134.025-134.025 134.025zm0-238.051c-57.359 0-104.025 46.666-104.025 104.026s46.666 104.025 104.025 104.025 104.025-46.666 104.025-104.025-46.665-104.026-104.025-104.026z"/></g></g></svg>