<?xml version="1.0" encoding="iso-8859-1"?>
<!-- Generator: Adobe Illustrator 19.0.0, SVG Export Plug-In . SVG Version: 6.00 Build 0)  -->
<svg version="1.1" id="Layer_1" xmlns="http://www.w3.org/2000/svg" xmlns:xlink="http://www.w3.org/1999/xlink" x="0px" y="0px"
	 viewBox="0 0 512.001 512.001" style="enable-background:new 0 0 512.001 512.001;" xml:space="preserve">
<rect x="108.61" y="223.384" style="fill:#61ACD2;" width="387.656" height="276.917"/>
<polygon style="fill:#3E81C8;" points="496.27,500.303 302.44,328.421 108.608,500.303 "/>
<rect x="62.166" y="117.536" style="fill:#F5C525;" width="387.656" height="276.917"/>
<polygon style="fill:#F4A026;" points="449.831,394.46 256,222.579 62.17,394.46 "/>
<rect x="15.731" y="11.699" style="fill:#D1D5D8;" width="387.656" height="276.917"/>
<g>
	<polygon style="fill:#EFEFEF;" points="403.392,288.618 209.561,116.738 15.731,288.618 	"/>
	<path style="fill:#EFEFEF;" d="M15.731,11.699L177.711,169.7c17.999,17.557,45.703,17.557,63.702,0L403.392,11.699H15.731z"/>
</g>
<path style="fill:#231F20;" d="M496.27,211.683h-34.74V117.54c0-6.46-5.239-11.699-11.699-11.699h-34.74V11.699
	c0-6.46-5.239-11.699-11.699-11.699H15.731C9.27,0,4.033,5.239,4.033,11.699v276.919c0,6.46,5.237,11.699,11.699,11.699h34.741
	v94.144c0,6.46,5.237,11.699,11.699,11.699h34.74v94.143c0,6.46,5.237,11.699,11.699,11.699h387.66
	c6.46,0,11.699-5.239,11.699-11.699V223.382C507.969,216.922,502.73,211.683,496.27,211.683z M484.572,235.081v239.211
	l-76.834-68.133h42.093c6.46,0,11.699-5.239,11.699-11.699v-159.38H484.572z M438.132,129.24v239.211l-76.835-68.134h42.095
	c6.46,0,11.699-5.239,11.699-11.699V129.24H438.132z M391.693,262.609L271.857,156.343L391.693,39.452V262.609z M374.645,23.397
	L233.244,161.325c-13.501,13.169-33.863,13.171-47.365,0L44.478,23.397H374.645z M147.264,156.343L27.43,262.609V39.451
	L147.264,156.343z M164.057,172.724l5.484,5.35c11.22,10.944,25.62,16.418,40.018,16.418c14.4,0,28.8-5.474,40.02-16.418l5.484-5.35
	l117.502,104.196H46.556L164.057,172.724z M150.703,300.317L73.87,368.45v-68.134H150.703z M185.968,300.317h140.064l92.973,82.446
	H92.994L185.968,300.317z M197.142,406.159l-76.834,68.133v-68.133H197.142z M139.434,488.603l92.973-82.445h140.065l92.972,82.445
	H139.434z"/>
<g>
</g>
<g>
</g>
<g>
</g>
<g>
</g>
<g>
</g>
<g>
</g>
<g>
</g>
<g>
</g>
<g>
</g>
<g>
</g>
<g>
</g>
<g>
</g>
<g>
</g>
<g>
</g>
<g>
</g>
</svg>
