<svg height="501pt" viewBox="-2 0 501 501.672" width="501pt" xmlns="http://www.w3.org/2000/svg"><path d="m264.335938 357.65625h-32c-30.878907 0-56-25.128906-56-56h-16c0 39.703125 32.304687 72 72 72h32c39.695312 0 72-32.296875 72-72h-16c0 30.871094-25.121094 56-56 56zm0 0"/><path d="m192.335938 229.65625c8.824218 0 16 7.175781 16 16h16c0-17.648438-14.351563-32-32-32-17.648438 0-32 14.351562-32 32h16c0-8.824219 7.175781-16 16-16zm0 0"/><path d="m312.335938 213.65625c-17.648438 0-32 14.351562-32 32h16c0-8.824219 7.175781-16 16-16 8.824218 0 16 7.175781 16 16h16c0-17.648438-14.351563-32-32-32zm0 0"/><path d="m432.335938 173.65625h-8.609376c-32.816406-59.726562-95.246093-100.945312-167.390624-103.800781v-8.199219c0-7.289062-2.839844-14.152344-8-19.3125l-4.679688-4.6875c-2.144531-2.144531-3.320312-4.976562-3.320312-8s1.175781-5.855469 3.3125-8l10.34375-10.34375-11.3125-11.3125-10.34375 10.34375c-5.160157 5.160156-8 12.023438-8 19.3125s2.839843 14.152344 8 19.3125l4.679687 4.6875c2.144531 2.144531 3.320313 4.976562 3.320313 8v8.199219c-72.144532 2.855469-134.574219 44.074219-167.390626 103.800781h-8.609374c-35.289063 0-64 28.710938-64 64v32c0 33.398438 25.726562 60.863281 58.390624 63.710938 10.777344 32.167968 29.65625 61.296874 55.394532 84.570312-11.304688 8.421875-17.785156 21.414062-17.785156 35.71875 0 14.328125 6.496093 27.34375 17.839843 35.769531.089844.070313.167969.132813.265625.191407 10.863282 7.949218 23.695313 12.054687 36.664063 12.054687 7.46875 0 15-1.367187 22.207031-4.136719l39.113281-15.023437c8.511719 10.191406 21.445313 16.710937 35.910157 16.710937 14.464843 0 27.390624-6.519531 35.910156-16.710937l39.121094 15.023437c7.21875 2.777344 14.730468 4.136719 22.207031 4.136719 12.96875 0 25.792969-4.105469 36.664062-12.054687.089844-.066407.167969-.128907.257813-.191407 11.34375-8.417969 17.839844-21.441406 17.839844-35.769531 0-14.304688-6.480469-27.296875-17.785157-35.71875 25.738281-23.273438 44.609375-52.402344 55.394531-84.570312 32.664063-2.847657 58.390626-30.3125 58.390626-63.710938v-32c0-35.289062-28.710938-64-64-64zm-416 96v-32c0-26.472656 21.527343-48 48-48h.753906c-10.746094 24.519531-16.753906 51.558594-16.753906 80 0 15.976562 1.929687 31.664062 5.550781 46.824219-21.453125-4.785157-37.550781-23.945313-37.550781-46.824219zm151.238281 212.945312c-14.542969 5.589844-30.78125 3.445313-43.46875-5.746093-.074219-.054688-.152344-.113281-.226563-.167969-7.335937-5.359375-11.542968-13.757812-11.542968-23.03125s4.207031-17.671875 11.535156-23.039062c.074218-.058594.152344-.113282.226562-.167969 12.6875-9.183594 28.925782-11.335938 43.46875-5.746094l36.960938 14.199219c-1.65625 4.664062-2.589844 9.648437-2.589844 14.859375 0 5.132812.910156 10.054687 2.519531 14.664062zm80.761719.621094c-16.761719 0-30.398438-13.214844-30.398438-29.460937 0-16.25 13.636719-29.457031 30.398438-29.457031 16.761718 0 30.398437 13.207031 30.398437 29.457031 0 16.246093-13.636719 29.460937-30.398437 29.460937zm124.464843-6.527344c-.074219.058594-.152343.113282-.226562.167969-12.695313 9.183594-28.933594 11.335938-43.46875 5.746094l-36.890625-14.175781c1.609375-4.609375 2.519531-9.53125 2.519531-14.664063 0-5.210937-.941406-10.195312-2.589844-14.859375l36.960938-14.199218c14.550781-5.589844 30.78125-3.445313 43.46875 5.746093.074219.054688.152343.109375.226562.167969 7.328125 5.359375 11.535157 13.757812 11.535157 23.03125s-4.207032 17.671875-11.535157 23.039062zm-5.28125-66.941406c-14.070312-5.363281-29.710937-5.515625-44.160156.023438l-39.246094 15.078125c-8.519531-10.09375-21.394531-16.542969-35.777343-16.542969-14.382813 0-27.257813 6.449219-35.777344 16.542969l-39.253906-15.078125c-14.441407-5.5625-30.082032-5.402344-44.160157-.023438-41.214843-35.082031-64.808593-85.84375-64.808593-140.097656 0-101.464844 82.542968-184 184-184 101.457031 0 184 82.535156 184 184 0 54.253906-23.59375 105.015625-64.816407 140.097656zm112.816407-140.097656c0 22.878906-16.097657 42.039062-37.558594 46.824219 3.628906-15.160157 5.558594-30.847657 5.558594-46.824219 0-28.441406-6.007813-55.480469-16.75-80h.75c26.472656 0 48 21.527344 48 48zm0 0"/></svg>