<?xml version="1.0" encoding="iso-8859-1"?>
<!-- Generator: Adobe Illustrator 19.0.0, SVG Export Plug-In . SVG Version: 6.00 Build 0)  -->
<svg version="1.1" id="Capa_1" xmlns="http://www.w3.org/2000/svg" xmlns:xlink="http://www.w3.org/1999/xlink" x="0px" y="0px"
	 viewBox="0 0 512 512" style="enable-background:new 0 0 512 512;" xml:space="preserve">
<g>
	<g>
		<path d="M187.558,0.585h-45.014v0.002c-35.657,0.054-69.812,13.265-96.196,37.217C20.095,61.639,3.649,94.108,0.039,129.233
			L0,137.502h15.005c4.137,0,7.502,3.365,7.502,7.502c0,4.137-3.365,7.502-7.502,7.502H0l0.051,8.373
			c8.425,72.141,69.664,126.558,142.493,126.667v0.002h45.014c79.116,0,143.482-64.365,143.482-143.481S266.674,0.585,187.558,0.585
			z M16.089,122.497c4.777-28.244,18.91-54.124,40.345-73.583c23.671-21.49,54.33-33.325,86.329-33.325
			c31.999,0,62.658,11.836,86.329,33.325c21.435,19.459,35.564,45.34,40.342,73.583H16.089z M36.199,137.502h248.889
			c4.137,0,7.502,3.365,7.502,7.502c0,4.137-3.365,7.502-7.502,7.502H36.199c0.835-2.351,1.312-4.868,1.312-7.502
			C37.512,142.37,37.033,139.853,36.199,137.502z M142.762,272.543c-62.462,0-115.443-44.587-126.551-105.032h252.893
			C258.001,227.953,205.112,272.543,142.762,272.543z M210.785,270.434c38.181-20.557,66.184-57.957,73.554-102.923h0.749
			c12.411,0,22.507-10.096,22.507-22.507c0-12.411-10.096-22.507-22.507-22.507h-0.455c-4.911-32.525-20.889-62.39-45.455-84.693
			c-8.712-7.908-18.275-14.638-28.455-20.118c59.824,10.938,105.313,63.445,105.313,126.38
			C316.036,206.979,270.578,259.47,210.785,270.434z"/>
	</g>
</g>
<g>
	<g>
		<rect x="135.042" y="235.033" width="15.005" height="15.005"/>
	</g>
</g>
<g>
	<g>
		<rect x="135.042" y="39.972" width="15.005" height="15.005"/>
	</g>
</g>
<g>
	<g>
		<path d="M491.158,192.138c-27.789-27.789-73.005-27.789-100.794,0l-82.226,82.226c-0.001,0.001-0.003,0.003-0.004,0.004
			L192.755,389.747c-13.462,13.461-20.875,31.359-20.875,50.397s7.413,36.935,20.875,50.397
			c13.462,13.461,31.36,20.875,50.397,20.875s36.935-7.413,50.397-20.875l115.379-115.379c0.001-0.001,0.003-0.002,0.004-0.004
			l82.226-82.226C518.947,265.142,518.947,219.926,491.158,192.138z M282.939,479.93c-10.627,10.627-24.758,16.48-39.786,16.48
			c-15.029,0-29.159-5.853-39.787-16.48c-10.627-10.628-16.48-24.758-16.48-39.787c0-15.03,5.853-29.159,16.48-39.786l84.505-84.505
			c-2.636,21.094,4.107,43.145,20.268,59.306C322.033,389.052,340.285,396,358.536,396c2.977,0,5.952-0.204,8.909-0.573
			L282.939,479.93z M480.548,282.321l-82.23,82.23c-21.939,21.935-57.633,21.933-79.571-0.004
			c-21.937-21.938-21.939-57.631-0.004-79.571l82.23-82.23c10.628-10.627,24.758-16.48,39.787-16.48
			c15.03,0,29.159,5.853,39.787,16.48c10.627,10.628,16.48,24.758,16.48,39.787C497.028,257.564,491.176,271.693,480.548,282.321z"
			/>
	</g>
</g>
<g>
	<g>
		<path d="M408.931,216.01l10.609,10.609c11.7-11.7,30.738-11.701,42.44,0l10.609-10.609
			C455.038,198.458,426.482,198.459,408.931,216.01z"/>
	</g>
</g>
<g>
	<g>
		
			<rect x="390.819" y="229.728" transform="matrix(0.7071 -0.7071 0.7071 0.7071 -51.0816 351.139)" width="15.005" height="15.004"/>
	</g>
</g>
<g>
</g>
<g>
</g>
<g>
</g>
<g>
</g>
<g>
</g>
<g>
</g>
<g>
</g>
<g>
</g>
<g>
</g>
<g>
</g>
<g>
</g>
<g>
</g>
<g>
</g>
<g>
</g>
<g>
</g>
</svg>
