<?xml version="1.0" encoding="iso-8859-1"?>
<!-- Generator: Adobe Illustrator 19.0.0, SVG Export Plug-In . SVG Version: 6.00 Build 0)  -->
<svg version="1.1" id="Capa_1" xmlns="http://www.w3.org/2000/svg" xmlns:xlink="http://www.w3.org/1999/xlink" x="0px" y="0px"
	 viewBox="0 0 512.001 512.001" style="enable-background:new 0 0 512.001 512.001;" xml:space="preserve">
<g>
	<g>
		<path d="M478.976,319.929c-22.864-22.865-53.781-34.586-85.784-32.769L362.031,256l132.362-132.362
			c11.294-11.294,17.514-26.356,17.514-42.412c0-16.057-6.22-31.119-17.514-42.412l-21.206-21.206
			C461.893,6.313,446.831,0.094,430.774,0.094c-16.056,0-31.119,6.22-42.412,17.513L256,149.969l-31.161-31.161
			c1.817-32.005-9.905-62.92-32.769-85.784C157.444-1.603,104.904-9.89,61.333,12.401l-18.342,9.384l69.556,69.556L91.34,112.548
			L21.785,42.992l-9.384,18.342c-22.292,43.571-14.004,96.11,20.623,130.737c22.864,22.864,53.774,34.583,85.784,32.769L149.969,256
			l-114.5,114.5l-35.3,141.331l141.331-35.3l114.5-114.5l31.161,31.161c-1.817,32.005,9.905,62.92,32.769,85.784
			c21.672,21.672,50.352,33.026,79.466,33.025c17.405-0.001,34.969-4.061,51.271-12.402l18.342-9.384l-69.556-69.556l21.207-21.207
			l69.556,69.556l9.384-18.342C521.891,407.096,513.603,354.556,478.976,319.929z M409.567,38.813
			c5.63-5.629,13.162-8.729,21.207-8.729c8.046,0,15.577,3.1,21.206,8.729l21.206,21.207c5.629,5.629,8.73,13.16,8.73,21.206
			c0,8.046-3.101,15.577-8.73,21.206l-15.145,15.145l-63.619-63.619L409.567,38.813z M373.217,75.164l63.619,63.619l-21.206,21.206
			L352.011,96.37L373.217,75.164z M95.437,31.818c22.038-4.707,45.14-0.157,63.86,12.773l-25.544,25.543L95.437,31.818z
			 M129.895,193.513l-7.256,0.889c-25.401,3.112-50.339-5.468-68.409-23.538c-20.155-20.155-28.144-48.583-22.412-75.427
			l59.522,59.522l89.165-89.164c11.375,16.458,16.388,36.498,13.896,56.844l-0.889,7.256l41.281,41.28l-63.619,63.619
			L129.895,193.513z M330.806,117.576l21.206,21.206l-260.59,260.59l-21.206-21.206L330.806,117.576z M41.343,470.656l15.79-63.161
			l47.371,47.371L41.343,470.656z M133.835,441.785l-21.207-21.207l260.59-260.59l21.207,21.207L133.835,441.785z M416.563,480.181
			c-22.037,4.707-45.14,0.157-63.86-12.773l25.544-25.544L416.563,480.181z M480.181,416.562l-59.522-59.522l-89.165,89.164
			c-11.375-16.458-16.388-36.498-13.896-56.844l0.889-7.256l-41.281-41.28l63.619-63.619l41.28,41.281l7.256-0.889
			c25.405-3.109,50.339,5.468,68.409,23.538C477.925,361.29,485.913,389.718,480.181,416.562z"/>
	</g>
</g>
<g>
</g>
<g>
</g>
<g>
</g>
<g>
</g>
<g>
</g>
<g>
</g>
<g>
</g>
<g>
</g>
<g>
</g>
<g>
</g>
<g>
</g>
<g>
</g>
<g>
</g>
<g>
</g>
<g>
</g>
</svg>
