<?xml version="1.0" encoding="iso-8859-1"?>
<!-- Generator: Adobe Illustrator 19.0.0, SVG Export Plug-In . SVG Version: 6.00 Build 0)  -->
<svg version="1.1" id="Capa_1" xmlns="http://www.w3.org/2000/svg" xmlns:xlink="http://www.w3.org/1999/xlink" x="0px" y="0px"
	 viewBox="0 0 512 512" style="enable-background:new 0 0 512 512;" xml:space="preserve">
<g>
	<g>
		<path d="M480.561,0H31.439c-4.958,0-8.982,4.024-8.982,8.982v134.737c0,4.958,4.024,8.982,8.982,8.982h449.123
			c4.958,0,8.982-4.024,8.982-8.982V8.982C489.544,4.024,485.52,0,480.561,0z M471.579,134.737H40.421V17.965h431.158V134.737z"/>
	</g>
</g>
<g>
	<g>
		<path d="M193.123,0H31.439c-4.958,0-8.982,4.024-8.982,8.982v134.737c0,4.958,4.024,8.982,8.982,8.982h161.684
			c4.958,0,8.982-4.024,8.982-8.982V8.982C202.105,4.024,198.081,0,193.123,0z M184.14,134.737H40.421V17.965H184.14V134.737z"/>
	</g>
</g>
<g>
	<g>
		<path d="M100.666,101.439L73.719,74.492c-3.503-3.512-9.198-3.512-12.701,0c-3.512,3.512-3.512,9.189,0,12.701l26.947,26.947
			c1.752,1.752,4.051,2.632,6.351,2.632s4.599-0.88,6.351-2.632C104.179,110.628,104.179,104.951,100.666,101.439z"/>
	</g>
</g>
<g>
	<g>
		<path d="M163.544,38.562c-3.503-3.512-9.198-3.512-12.701,0l-62.877,62.877c-3.512,3.512-3.512,9.189,0,12.701
			c1.752,1.752,4.051,2.632,6.351,2.632s4.599-0.88,6.351-2.632l62.877-62.877C167.056,47.751,167.056,42.074,163.544,38.562z"/>
	</g>
</g>
<g>
	<g>
		<path d="M381.754,44.912H229.053c-4.958,0-8.982,4.024-8.982,8.982s4.024,8.982,8.982,8.982h152.702
			c4.958,0,8.982-4.024,8.982-8.982S386.713,44.912,381.754,44.912z"/>
	</g>
</g>
<g>
	<g>
		<path d="M444.632,44.912h-26.947c-4.958,0-8.982,4.024-8.982,8.982s4.024,8.982,8.982,8.982h26.947
			c4.958,0,8.982-4.024,8.982-8.982S449.59,44.912,444.632,44.912z"/>
	</g>
</g>
<g>
	<g>
		<path d="M444.632,89.825H291.93c-4.958,0-8.982,4.024-8.982,8.982s4.024,8.982,8.982,8.982h152.702
			c4.958,0,8.982-4.024,8.982-8.982S449.59,89.825,444.632,89.825z"/>
	</g>
</g>
<g>
	<g>
		<path d="M256,89.825h-26.947c-4.958,0-8.982,4.024-8.982,8.982s4.024,8.982,8.982,8.982H256c4.958,0,8.982-4.024,8.982-8.982
			S260.958,89.825,256,89.825z"/>
	</g>
</g>
<g>
	<g>
		<path d="M480.561,179.649H31.439c-4.958,0-8.982,4.024-8.982,8.982v134.737c0,4.958,4.024,8.982,8.982,8.982h449.123
			c4.958,0,8.982-4.024,8.982-8.982V188.632C489.544,183.673,485.52,179.649,480.561,179.649z M471.579,314.386H40.421V197.614
			h431.158V314.386z"/>
	</g>
</g>
<g>
	<g>
		<path d="M193.123,179.649H31.439c-4.958,0-8.982,4.024-8.982,8.982v134.737c0,4.958,4.024,8.982,8.982,8.982h161.684
			c4.958,0,8.982-4.024,8.982-8.982V188.632C202.105,183.673,198.081,179.649,193.123,179.649z M184.14,314.386H40.421V197.614
			H184.14V314.386z"/>
	</g>
</g>
<g>
	<g>
		<path d="M100.666,281.088l-26.947-26.947c-3.503-3.512-9.198-3.512-12.701,0c-3.512,3.512-3.512,9.189,0,12.701l26.947,26.947
			c1.752,1.752,4.051,2.632,6.351,2.632s4.599-0.88,6.351-2.632C104.179,290.277,104.179,284.6,100.666,281.088z"/>
	</g>
</g>
<g>
	<g>
		<path d="M163.544,218.211c-3.503-3.512-9.198-3.512-12.701,0l-62.877,62.877c-3.512,3.512-3.512,9.189,0,12.701
			c1.752,1.752,4.051,2.632,6.351,2.632s4.599-0.88,6.351-2.632l62.877-62.877C167.056,227.4,167.056,221.723,163.544,218.211z"/>
	</g>
</g>
<g>
	<g>
		<path d="M381.754,224.561H229.053c-4.958,0-8.982,4.024-8.982,8.982s4.024,8.982,8.982,8.982h152.702
			c4.958,0,8.982-4.024,8.982-8.982S386.713,224.561,381.754,224.561z"/>
	</g>
</g>
<g>
	<g>
		<path d="M444.632,224.561h-26.947c-4.958,0-8.982,4.024-8.982,8.982s4.024,8.982,8.982,8.982h26.947
			c4.958,0,8.982-4.024,8.982-8.982S449.59,224.561,444.632,224.561z"/>
	</g>
</g>
<g>
	<g>
		<path d="M444.632,269.474H291.93c-4.958,0-8.982,4.024-8.982,8.982s4.024,8.982,8.982,8.982h152.702
			c4.958,0,8.982-4.024,8.982-8.982S449.59,269.474,444.632,269.474z"/>
	</g>
</g>
<g>
	<g>
		<path d="M256,269.474h-26.947c-4.958,0-8.982,4.024-8.982,8.982s4.024,8.982,8.982,8.982H256c4.958,0,8.982-4.024,8.982-8.982
			S260.958,269.474,256,269.474z"/>
	</g>
</g>
<g>
	<g>
		<path d="M480.561,359.298H31.439c-4.958,0-8.982,4.024-8.982,8.982v134.737c0,4.958,4.024,8.982,8.982,8.982h449.123
			c4.958,0,8.982-4.024,8.982-8.982V368.281C489.544,363.322,485.52,359.298,480.561,359.298z M471.579,494.035H40.421V377.263
			h431.158V494.035z"/>
	</g>
</g>
<g>
	<g>
		<path d="M193.123,359.298H31.439c-4.958,0-8.982,4.024-8.982,8.982v134.737c0,4.958,4.024,8.982,8.982,8.982h161.684
			c4.958,0,8.982-4.024,8.982-8.982V368.281C202.105,363.322,198.081,359.298,193.123,359.298z M184.14,494.035H40.421V377.263
			H184.14V494.035z"/>
	</g>
</g>
<g>
	<g>
		<path d="M100.666,460.737L73.719,433.79c-3.503-3.512-9.198-3.512-12.701,0c-3.512,3.512-3.512,9.189,0,12.701l26.947,26.947
			c1.752,1.752,4.051,2.632,6.351,2.632s4.599-0.88,6.351-2.632C104.179,469.926,104.179,464.249,100.666,460.737z"/>
	</g>
</g>
<g>
	<g>
		<path d="M163.544,397.86c-3.503-3.512-9.198-3.512-12.701,0l-62.877,62.877c-3.512,3.512-3.512,9.189,0,12.701
			c1.752,1.752,4.051,2.632,6.351,2.632s4.599-0.88,6.351-2.632l62.877-62.877C167.056,407.049,167.056,401.372,163.544,397.86z"/>
	</g>
</g>
<g>
	<g>
		<path d="M381.754,404.211H229.053c-4.958,0-8.982,4.024-8.982,8.982s4.024,8.982,8.982,8.982h152.702
			c4.958,0,8.982-4.024,8.982-8.982S386.713,404.211,381.754,404.211z"/>
	</g>
</g>
<g>
	<g>
		<path d="M444.632,404.211h-26.947c-4.958,0-8.982,4.024-8.982,8.982s4.024,8.982,8.982,8.982h26.947
			c4.958,0,8.982-4.024,8.982-8.982S449.59,404.211,444.632,404.211z"/>
	</g>
</g>
<g>
	<g>
		<path d="M444.632,449.123H291.93c-4.958,0-8.982,4.024-8.982,8.982c0,4.958,4.024,8.982,8.982,8.982h152.702
			c4.958,0,8.982-4.024,8.982-8.982C453.614,453.147,449.59,449.123,444.632,449.123z"/>
	</g>
</g>
<g>
	<g>
		<path d="M256,449.123h-26.947c-4.958,0-8.982,4.024-8.982,8.982c0,4.958,4.024,8.982,8.982,8.982H256
			c4.958,0,8.982-4.024,8.982-8.982C264.982,453.147,260.958,449.123,256,449.123z"/>
	</g>
</g>
<g>
</g>
<g>
</g>
<g>
</g>
<g>
</g>
<g>
</g>
<g>
</g>
<g>
</g>
<g>
</g>
<g>
</g>
<g>
</g>
<g>
</g>
<g>
</g>
<g>
</g>
<g>
</g>
<g>
</g>
</svg>
